<svg width="600" height="600" viewBox="0 0 600 600" fill="none" xmlns="http://www.w3.org/2000/svg">
<g id="favicon">
<rect id="bg" width="600" height="600" fill="white"/>
<g id="barcode">
<path d="M0 518V82H7.89311V518H0ZM39.4656 518V82H55.2518V518H39.4656ZM63.1449 518V82H71.038V518H63.1449Z" fill="black"/>
<path d="M86.8448 518V82H94.7379V518H86.8448ZM110.524 518V82H126.31V518H110.524ZM134.203 518V82H142.097V518H134.203Z" fill="black"/>
<path d="M173.69 518V82H189.476V518H173.69ZM221.048 518V82H228.941V518H221.048ZM236.835 518V82H244.728V518H236.835Z" fill="black"/>
<path d="M260.534 518V82H268.428V518H260.534ZM284.214 518V82H292.107V518H284.214ZM300 518V82H315.786V518H300Z" fill="black"/>
<path d="M347.379 518V82H355.272V518H347.379ZM386.845 518V82H394.738V518H386.845ZM402.631 518V82H418.417V518H402.631Z" fill="black"/>
<path d="M434.224 518V82H442.117V518H434.224ZM473.69 518V82H489.476V518H473.69ZM497.369 518V82H505.262V518H497.369Z" fill="black"/>
<path d="M521.069 518V82H528.962V518H521.069ZM552.641 518V82H584.214V518H552.641ZM592.107 518V82H600V518H592.107Z" fill="black"/>
</g>
</g>
</svg>
