<svg width="45" height="45" viewBox="0 0 45 45" fill="none" xmlns="http://www.w3.org/2000/svg">
<path d="M23.2101 42.4421L38.8428 23.8382C42.6839 19.267 43.2506 11.7467 39.6156 6.94275C38.7051 5.73596 37.5976 4.76259 36.3605 4.08204C35.1235 3.40149 33.7829 3.02802 32.4205 2.98442C31.0582 2.94082 29.7027 3.22801 28.4367 3.82846C27.1707 4.42891 26.0207 5.33003 25.0571 6.47684L22.1188 9.97354L19.5819 6.95449C15.7408 2.3833 9.42164 1.70889 5.38494 6.03478C4.37089 7.11835 3.55298 8.43643 2.98112 9.9086C2.40926 11.3808 2.09544 12.9762 2.0588 14.5975C2.02217 16.2187 2.26349 17.8319 2.76804 19.3385C3.27259 20.8451 4.02979 22.2136 4.99344 23.3605L21.0275 42.4421C21.3169 42.7866 21.7095 42.9801 22.1188 42.9801C22.5281 42.9801 22.9207 42.7866 23.2101 42.4421Z" stroke="#A8A8A8" stroke-width="4" stroke-linecap="round" stroke-linejoin="round"/>
</svg>
